<svg width="15" height="15" viewBox="0 0 15 15" fill="none" xmlns="http://www.w3.org/2000/svg">
<path fill-rule="evenodd" clip-rule="evenodd" d="M7.49981 0C5.71881 7.26294e-05 3.99596 0.633926 2.63957 1.78813C1.28319 2.94233 0.381798 4.54155 0.0967199 6.29958C-0.188358 8.05762 0.161485 9.85973 1.08363 11.3834C2.00578 12.9071 3.44005 14.0529 5.12976 14.6158C5.50497 14.6844 5.64171 14.4532 5.64171 14.2544C5.64171 14.0762 5.63526 13.6048 5.63158 12.9786C3.54558 13.4321 3.10546 11.9736 3.10546 11.9736C2.96757 11.5203 2.67219 11.1312 2.27262 10.8765C1.59172 10.4111 2.32418 10.4208 2.32418 10.4208C2.56185 10.4535 2.78889 10.5401 2.98796 10.674C3.18704 10.8079 3.35288 10.9855 3.47284 11.1933C3.57439 11.3784 3.71164 11.5414 3.87664 11.6731C4.04164 11.8048 4.23111 11.9024 4.4341 11.9604C4.63709 12.0184 4.84956 12.0355 5.05921 12.0109C5.26886 11.9862 5.47154 11.9202 5.65552 11.8166C5.68972 11.4364 5.85853 11.0808 6.13155 10.8139C4.46635 10.6247 2.71551 9.98155 2.71551 7.10739C2.70482 6.36234 2.98129 5.64176 3.48757 5.09506C3.25849 4.44825 3.28483 3.73839 3.56123 3.11034C3.56123 3.11034 4.19058 2.9087 5.62329 3.87918C6.85231 3.54281 8.14914 3.54281 9.37817 3.87918C10.81 2.9087 11.4384 3.11034 11.4384 3.11034C11.7151 3.73824 11.742 4.44806 11.5134 5.09506C12.0198 5.64162 12.2958 6.36241 12.2841 7.10739C12.2841 9.98846 10.5305 10.6224 8.85978 10.8079C9.03871 10.9898 9.17672 11.2078 9.26454 11.4474C9.35235 11.6869 9.38795 11.9425 9.36896 12.1969C9.36896 13.1996 9.35975 14.0085 9.35975 14.2544C9.35975 14.4546 9.49511 14.688 9.87539 14.6148C11.5643 14.0508 12.9975 12.9043 13.9185 11.3804C14.8396 9.85656 15.1885 8.05471 14.9028 6.29717C14.6171 4.53963 13.7155 2.94104 12.3592 1.78734C11.0029 0.633643 9.28042 8.95284e-05 7.49981 0Z" fill="white"/>
</svg>
