<svg width="13" height="13" viewBox="0 0 13 13" fill="none" xmlns="http://www.w3.org/2000/svg">
<path d="M2.8129 12.9115H0.0458984V3.68945H2.8129V12.9115ZM12.9569 12.9115H10.1899V7.98945C10.1899 6.70545 9.7329 6.06645 8.8259 6.06645C8.50309 6.05042 8.18509 6.14961 7.92865 6.34634C7.67222 6.54306 7.49403 6.82451 7.4259 7.14045V12.9155H4.6569C4.6569 12.9155 4.6939 4.61545 4.6569 3.69345H6.8409L7.0099 5.53745H7.0669C7.34028 5.06031 7.73645 4.66509 8.21425 4.39286C8.69206 4.12063 9.23405 3.98134 9.7839 3.98945C10.2109 3.96216 10.6387 4.0309 11.0356 4.19063C11.4326 4.35035 11.7888 4.597 12.0779 4.91245C12.7148 5.69858 13.0293 6.69724 12.9579 7.70645L12.9569 12.9115Z" fill="white"/>
<path d="M1.429 2.766C2.21821 2.766 2.858 2.14681 2.858 1.383C2.858 0.61919 2.21821 0 1.429 0C0.639785 0 0 0.61919 0 1.383C0 2.14681 0.639785 2.766 1.429 2.766Z" fill="white"/>
</svg>
