<svg width="162" height="27" viewBox="0 0 162 27" fill="none" xmlns="http://www.w3.org/2000/svg">
<g clip-path="url(#clip0_6559_95838)">
<path d="M7.77983 27H-0.0927734V16.0627H1.82343V25.0322H5.86362V14.6669H-0.0927734V0H12.0509C17.5686 0 22.0706 4.71356 22.0706 10.4568C22.0706 16.2458 17.5686 20.9136 12.0509 20.9136H8.77256V18.8542H12.0509C16.4605 18.8542 20.1082 15.0331 20.1082 10.411C20.1082 5.78898 16.4605 1.9678 12.0509 1.9678H1.8696V12.6763H5.86362V5.42288H11.7277C14.1749 5.42288 16.1372 7.4822 16.1372 10.0449C16.1372 12.6076 14.1287 14.6669 11.7277 14.6669H7.77983V27ZM7.77983 12.6534H11.7508C13.1129 12.6534 14.2441 11.4407 14.2441 10.0449C14.2441 8.60339 13.1129 7.43644 11.7508 7.43644H7.77983V12.6534Z" fill="#00A571"/>
<path d="M37.8394 11.3031C37.8394 13.2709 36.2926 14.8039 34.261 14.8039H32.0446V18.4878H30.29V7.80225H34.261C36.2926 7.80225 37.8394 9.3353 37.8394 11.3031ZM36.0617 11.3031C36.0617 10.2277 35.2999 9.47259 34.261 9.47259H32.0446V13.2022H34.261C35.2999 13.1794 36.0617 12.3785 36.0617 11.3031Z" fill="white"/>
<path d="M43.4494 10.7085V12.4932C42.3643 12.4017 41.0945 12.9509 41.0945 14.6441V18.5339H39.4092V10.8915H41.0945V12.1958C41.5332 11.0746 42.4566 10.7085 43.4494 10.7085Z" fill="white"/>
<path d="M52.3605 10.8459V18.4653H50.6751V17.3899C50.098 18.1908 49.1745 18.6942 47.9971 18.6942C45.9193 18.6942 44.1416 16.9552 44.1416 14.7128C44.1416 12.4247 45.85 10.7314 47.9971 10.7314C49.2207 10.7314 50.1211 11.2348 50.6751 12.0357V10.9603H52.3605V10.8459ZM50.7213 14.667C50.7213 13.2255 49.6824 12.2416 48.2741 12.2416C46.8658 12.2416 45.8269 13.2713 45.8269 14.667C45.8269 16.1086 46.8658 17.0925 48.2741 17.0925C49.6824 17.0925 50.7213 16.0628 50.7213 14.667Z" fill="white"/>
<path d="M62.3573 10.8457V18.122C62.3573 20.5932 60.418 21.7144 58.4095 21.7144C56.7241 21.7144 55.4313 21.0966 54.7387 19.8839L56.1931 19.083C56.5163 19.7466 57.0935 20.25 58.4556 20.25C59.9101 20.25 60.7643 19.4949 60.7643 18.1449V17.2067C60.1871 18.0076 59.2637 18.5567 58.0862 18.5567C55.9161 18.5567 54.1846 16.8177 54.1846 14.6211C54.1846 12.4245 55.893 10.6855 58.0862 10.6855C59.2637 10.6855 60.1641 11.1889 60.7643 12.0355V10.9144H62.3573V10.8457ZM60.7181 14.5754C60.7181 13.1796 59.6792 12.1957 58.2709 12.1957C56.8626 12.1957 55.8237 13.2254 55.8237 14.5754C55.8237 15.9711 56.8626 16.955 58.2709 16.955C59.6792 16.955 60.7181 15.9711 60.7181 14.5754Z" fill="white"/>
<path d="M75.9322 13.7289V18.4425H74.2469V13.8204C74.2469 12.745 73.6697 12.1501 72.7463 12.1501C71.7535 12.1501 71.0609 12.7679 71.0609 14.1637V18.4196H69.3756V13.8204C69.3756 12.745 68.8215 12.1501 67.9211 12.1501C66.9745 12.1501 66.2127 12.7679 66.2127 14.1637V18.4196H64.5273V10.8001H66.2127V11.6925C66.7206 10.9374 67.4825 10.5713 68.429 10.5713C69.4217 10.5713 70.1374 11.0289 70.5992 11.784C71.1071 10.9832 71.9151 10.5713 72.954 10.5713C74.7548 10.6399 75.9322 11.8298 75.9322 13.7289Z" fill="white"/>
<path d="M85.7902 10.8459V18.4653H84.1049V17.3899C83.5277 18.1908 82.6042 18.6942 81.4268 18.6942C79.349 18.6942 77.5713 16.9552 77.5713 14.7128C77.5713 12.4247 79.2797 10.7314 81.4268 10.7314C82.6504 10.7314 83.5508 11.2348 84.1049 12.0357V10.9603H85.7902V10.8459ZM84.1279 14.667C84.1279 13.2255 83.089 12.2416 81.6807 12.2416C80.2724 12.2416 79.2335 13.2713 79.2335 14.667C79.2335 16.1086 80.2724 17.0925 81.6807 17.0925C83.089 17.0925 84.1279 16.0628 84.1279 14.667Z" fill="white"/>
<path d="M90.4081 12.4249V16.1088C90.4081 17.0927 91.0314 17.0469 92.3012 17.0012V18.4885C89.7616 18.8088 88.7227 18.0766 88.7227 16.1088V12.4249H87.3145V10.8461H88.7227V9.17575L90.4081 8.67236V10.8232H92.3012V12.402H90.4081V12.4249Z" fill="white"/>
<path d="M93.8936 8.64929C93.8936 8.07726 94.4015 7.61963 94.9325 7.61963C95.4865 7.61963 95.9714 8.12302 95.9714 8.64929C95.9714 9.22132 95.4635 9.67895 94.9325 9.67895C94.4015 9.67895 93.8936 9.19844 93.8936 8.64929ZM94.1244 10.8459H95.8098V18.4654H94.1244V10.8459Z" fill="white"/>
<path d="M97.6113 14.6669C97.6113 12.3788 99.3197 10.6855 101.675 10.6855C103.175 10.6855 104.491 11.4406 105.115 12.6533L103.66 13.4542C103.337 12.7449 102.575 12.2872 101.628 12.2872C100.266 12.2872 99.2274 13.3169 99.2274 14.6669C99.2274 16.0627 100.266 17.0466 101.628 17.0466C102.529 17.0466 103.314 16.5432 103.66 15.8796L105.115 16.6805C104.491 17.8932 103.175 18.6483 101.675 18.6483C99.3197 18.6483 97.6113 16.9093 97.6113 14.6669Z" fill="white"/>
<path d="M110.424 13.134C110.424 10.0451 112.779 7.61963 116.034 7.61963C118.019 7.61963 119.751 8.60353 120.651 10.1823L119.104 11.0747C118.527 10.0451 117.396 9.38149 116.034 9.38149C113.725 9.38149 112.178 11.0061 112.178 13.2027C112.178 15.3993 113.725 17.0239 116.034 17.0239C117.396 17.0239 118.573 16.3603 119.104 15.3306L120.651 16.1773C119.751 17.7561 118.019 18.74 116.034 18.74C112.779 18.6484 110.424 16.2459 110.424 13.134Z" fill="white"/>
<path d="M121.875 14.6669C121.875 12.3788 123.676 10.6855 125.938 10.6855C128.201 10.6855 130.002 12.4245 130.002 14.6669C130.002 16.9093 128.201 18.6483 125.938 18.6483C123.676 18.6483 121.875 16.9093 121.875 14.6669ZM128.339 14.6669C128.339 13.2711 127.3 12.2415 125.938 12.2415C124.576 12.2415 123.537 13.2711 123.537 14.6669C123.537 16.0627 124.576 17.0923 125.938 17.0923C127.3 17.0923 128.339 16.0627 128.339 14.6669Z" fill="white"/>
<path d="M139.56 7.80225V18.4878H137.874V17.4124C137.297 18.2133 136.374 18.7167 135.196 18.7167C133.118 18.7167 131.341 16.9777 131.341 14.7353C131.341 12.4472 133.049 10.7539 135.196 10.7539C136.42 10.7539 137.32 11.2573 137.874 12.0582V7.93953H139.56V7.80225ZM137.897 14.6667C137.897 13.2251 136.859 12.2412 135.45 12.2412C134.042 12.2412 133.003 13.2709 133.003 14.6667C133.003 16.1082 134.042 17.0921 135.45 17.0921C136.835 17.0921 137.897 16.0624 137.897 14.6667Z" fill="white"/>
<path d="M145.585 17.1841C146.486 17.1841 147.224 16.7722 147.571 16.2459L148.933 17.0468C148.217 18.0764 147.086 18.7171 145.585 18.7171C143.046 18.7171 141.43 17.0239 141.43 14.7358C141.43 12.4934 143.069 10.7544 145.493 10.7544C147.802 10.7544 149.348 12.5849 149.348 14.7815C149.348 15.0103 149.302 15.2849 149.302 15.4451H143.184C143.369 16.5434 144.362 17.1841 145.585 17.1841ZM147.617 14.0493C147.386 12.7451 146.393 12.173 145.401 12.173C144.131 12.173 143.323 12.8824 143.092 14.0493H147.617Z" fill="white"/>
<path d="M155.12 10.7085V12.4932C154.035 12.4017 152.765 12.9509 152.765 14.6441V18.5339H151.08V10.8915H152.765V12.1958C153.181 11.0746 154.128 10.7085 155.12 10.7085Z" fill="white"/>
<path d="M162 16.3142C162 17.8473 160.638 18.6481 159.022 18.6481C157.475 18.6481 156.39 17.9846 155.905 16.8634L157.36 16.0625C157.591 16.7261 158.214 17.138 159.068 17.138C159.784 17.138 160.384 16.9091 160.384 16.2913C160.384 14.9413 156.275 15.7193 156.275 12.9735C156.275 11.532 157.544 10.6396 159.091 10.6396C160.361 10.6396 161.4 11.2117 161.931 12.2185L160.523 12.9735C160.246 12.4015 159.715 12.1269 159.068 12.1269C158.491 12.1269 157.937 12.4015 157.937 12.9278C157.845 14.3464 162 13.4998 162 16.3142Z" fill="white"/>
</g>
<defs>
<clipPath id="clip0_6559_95838">
<rect width="162" height="27" fill="white"/>
</clipPath>
</defs>
</svg>
