<?xml version="1.0" encoding="utf-8"?>
<!-- Generator: Adobe Illustrator 27.0.0, SVG Export Plug-In . SVG Version: 6.00 Build 0)  -->
<svg version="1.1" id="Warstwa_1" xmlns="http://www.w3.org/2000/svg" xmlns:xlink="http://www.w3.org/1999/xlink" x="0px" y="0px"
	 viewBox="0 0 13 13" style="enable-background:new 0 0 13 13;" xml:space="preserve">
<style type="text/css">
	.st0{fill:#FFFFFF;}
</style>
<path class="st0" d="M0.5,6.5c0-1.1,0.3-2.1,0.8-3c0.5-0.9,1.3-1.6,2.2-2.2c0.9-0.5,1.9-0.8,3-0.8c1.1,0,2.1,0.3,3,0.8
	c0.9,0.5,1.6,1.3,2.2,2.2c0.5,0.9,0.8,1.9,0.8,3s-0.3,2.1-0.8,3c-0.5,0.9-1.3,1.6-2.2,2.2c-0.9,0.5-1.9,0.8-3,0.8
	c-1.1,0-2.1-0.3-3-0.8c-0.9-0.5-1.6-1.3-2.2-2.2C0.8,8.6,0.5,7.6,0.5,6.5z M1.5,6.5c0,1.2,0.4,2.3,1.3,3.3c0.4-0.7,1-1.5,1.8-2.1
	C5.4,7,6.2,6.5,7,6.4C6.9,6.1,6.8,5.8,6.7,5.6C5.3,6.1,3.8,6.3,2.2,6.3c-0.3,0-0.5,0-0.7,0c0,0,0,0.1,0,0.1C1.5,6.4,1.5,6.5,1.5,6.5
	z M1.7,5.3c0.2,0,0.4,0,0.8,0c1.3,0,2.6-0.2,3.8-0.5c-0.6-1.1-1.3-2-2-2.7C3.6,2.4,3.1,2.8,2.6,3.4C2.2,4,1.9,4.6,1.7,5.3z
	 M3.4,10.4c0.9,0.7,1.9,1.1,3.1,1.1c0.6,0,1.2-0.1,1.8-0.3c-0.2-1.4-0.5-2.7-0.9-4C6.6,7.4,5.9,7.8,5.1,8.4C4.4,9,3.8,9.7,3.4,10.4z
	 M5.3,1.7C6,2.4,6.6,3.3,7.2,4.4c1.1-0.5,1.9-1,2.5-1.7c-0.9-0.8-2-1.1-3.2-1.1C6.1,1.5,5.7,1.6,5.3,1.7z M7.7,5.2
	c0.1,0.3,0.3,0.6,0.4,1C8.7,6.2,9.3,6.1,10,6.1c0.5,0,1,0,1.5,0c-0.1-1.1-0.5-2-1.2-2.9C9.8,4,8.9,4.7,7.7,5.2z M8.4,7.1
	C8.8,8.2,9,9.4,9.2,10.7c0.6-0.4,1.1-0.9,1.5-1.6c0.4-0.6,0.6-1.3,0.7-2.1C10.9,7,10.3,7,9.9,7C9.4,7,8.9,7,8.4,7.1z"/>
</svg>
