<svg width="7" height="17" viewBox="0 0 7 17" fill="none" xmlns="http://www.w3.org/2000/svg">
<path d="M6.98 5.86426H4.603V4.30426C4.59007 4.21164 4.59775 4.11731 4.6255 4.02801C4.65325 3.93871 4.70039 3.85663 4.76354 3.78766C4.82668 3.71868 4.90429 3.66451 4.9908 3.629C5.07731 3.59349 5.1706 3.57753 5.264 3.58226H6.942V1.00926L4.632 1.00426C4.2101 0.970828 3.78596 1.02932 3.38886 1.1757C2.99175 1.32208 2.63113 1.55286 2.33186 1.85212C2.0326 2.15139 1.80181 2.51201 1.65544 2.90912C1.50906 3.30622 1.45057 3.73036 1.484 4.15226V5.86426H0V8.51626H1.483V16.0223H4.603V8.51726H6.708L6.98 5.86426Z" fill="white"/>
</svg>
