<svg xmlns="http://www.w3.org/2000/svg" xmlns:xlink="http://www.w3.org/1999/xlink" id="Warstwa_1" x="0px" y="0px" viewBox="0 0 160 34" style="enable-background:new 0 0 160 34;" xml:space="preserve"><style type="text/css">	.st0{clip-path:url(#SVGID_2_);}	.st1{fill:#4285F4;}	.st2{fill:#34A853;}	.st3{fill:#FBBC05;}	.st4{fill:#EA4335;}	.st5{fill:#121212;}	.st6{fill:#E77119;}</style><g>	<g>		<defs>			<rect id="SVGID_1_" width="34" height="34"></rect>		</defs>		<clipPath id="SVGID_2_">			<use xlink:href="#SVGID_1_" style="overflow:visible;"></use>		</clipPath>		<g class="st0">			<path class="st1" d="M17.3,13.9v6.6h9.3c-0.4,2.1-1.6,3.9-3.5,5.1l5.6,4.3c3.3-3,5.2-7.3,5.2-12.5c0-1.2-0.1-2.4-0.3-3.5    L17.3,13.9z"></path>			<path class="st2" d="M7.6,20.2l-1.3,1l-4.5,3.4c2.9,5.5,8.7,9.4,15.5,9.4c4.7,0,8.6-1.5,11.5-4.1l-5.6-4.3    c-1.5,1-3.5,1.6-5.9,1.6C12.8,27.2,9,24.2,7.6,20.2L7.6,20.2z"></path>			<path class="st3" d="M1.9,9.4C0.7,11.7,0,14.2,0,17c0,2.7,0.7,5.3,1.9,7.6c0,0,5.8-4.4,5.8-4.4c-0.3-1-0.6-2.1-0.6-3.2    c0-1.1,0.2-2.2,0.6-3.2L1.9,9.4z"></path>			<path class="st4" d="M17.3,6.8c2.6,0,4.8,0.9,6.6,2.5l5-4.9C25.9,1.7,22,0,17.3,0C10.6,0,4.7,3.8,1.9,9.4l5.8,4.4    C9,9.7,12.8,6.8,17.3,6.8z"></path>		</g>	</g>	<path class="st5" d="M46.9,7.6v-1l3.6,0v3.2c-0.6,0.4-1.1,0.8-1.7,1c-0.6,0.2-1.2,0.3-1.8,0.3c-0.8,0-1.6-0.2-2.3-0.5  C44,10.2,43.5,9.7,43.2,9c-0.4-0.7-0.5-1.4-0.5-2.3c0-0.8,0.2-1.6,0.5-2.3c0.4-0.7,0.9-1.3,1.5-1.6c0.7-0.4,1.4-0.5,2.3-0.5  c0.6,0,1.2,0.1,1.7,0.3c0.5,0.2,0.9,0.5,1.2,0.8c0.3,0.4,0.5,0.8,0.7,1.4l-1,0.3c-0.1-0.4-0.3-0.8-0.5-1s-0.5-0.4-0.8-0.6  c-0.4-0.2-0.8-0.2-1.2-0.2c-0.5,0-1,0.1-1.3,0.2c-0.4,0.2-0.7,0.4-0.9,0.6c-0.2,0.3-0.4,0.5-0.5,0.8c-0.2,0.5-0.3,1.1-0.3,1.7  c0,0.8,0.1,1.4,0.4,1.9c0.3,0.5,0.7,0.9,1.2,1.1c0.5,0.3,1,0.4,1.6,0.4c0.5,0,1-0.1,1.4-0.3c0.5-0.2,0.8-0.4,1.1-0.6V7.6H46.9z   M51.9,7.9c0-1.2,0.3-2,1-2.6c0.5-0.5,1.2-0.7,2-0.7c0.9,0,1.6,0.3,2.1,0.8c0.5,0.6,0.8,1.3,0.8,2.3c0,0.8-0.1,1.4-0.4,1.9  c-0.2,0.5-0.6,0.8-1,1.1c-0.5,0.3-1,0.4-1.5,0.4c-0.9,0-1.6-0.3-2.1-0.8C52.1,9.7,51.9,8.9,51.9,7.9z M52.9,7.9  c0,0.8,0.2,1.4,0.5,1.8c0.3,0.4,0.8,0.6,1.3,0.6c0.5,0,1-0.2,1.3-0.6c0.3-0.4,0.5-1,0.5-1.8c0-0.8-0.2-1.4-0.5-1.7  c-0.3-0.4-0.8-0.6-1.3-0.6c-0.5,0-1,0.2-1.3,0.6C53.1,6.5,52.9,7.1,52.9,7.9z M58.7,7.9c0-1.2,0.3-2,1-2.6c0.5-0.5,1.2-0.7,2-0.7  c0.9,0,1.6,0.3,2.1,0.8c0.5,0.6,0.8,1.3,0.8,2.3c0,0.8-0.1,1.4-0.4,1.9c-0.2,0.5-0.6,0.8-1,1.1c-0.5,0.3-1,0.4-1.5,0.4  c-0.9,0-1.6-0.3-2.1-0.8C58.9,9.7,58.7,8.9,58.7,7.9z M59.7,7.9c0,0.8,0.2,1.4,0.5,1.8c0.3,0.4,0.8,0.6,1.3,0.6  c0.5,0,1-0.2,1.3-0.6c0.3-0.4,0.5-1,0.5-1.8c0-0.8-0.2-1.4-0.5-1.7c-0.3-0.4-0.8-0.6-1.3-0.6c-0.5,0-1,0.2-1.3,0.6  C59.9,6.5,59.7,7.1,59.7,7.9z M65.7,11.5l1,0.2c0,0.3,0.2,0.5,0.4,0.7c0.3,0.2,0.6,0.3,1.1,0.3c0.5,0,0.9-0.1,1.1-0.3  c0.3-0.2,0.4-0.5,0.5-0.8c0.1-0.2,0.1-0.7,0.1-1.4c-0.5,0.5-1,0.8-1.7,0.8c-0.9,0-1.5-0.3-2-0.9c-0.5-0.6-0.7-1.4-0.7-2.2  c0-0.6,0.1-1.1,0.3-1.6C66,5.7,66.3,5.3,66.7,5c0.4-0.3,0.9-0.4,1.4-0.4c0.7,0,1.3,0.3,1.8,0.9V4.8h1v5.4c0,1-0.1,1.7-0.3,2.1  c-0.2,0.4-0.5,0.7-0.9,1c-0.4,0.2-1,0.4-1.6,0.4c-0.7,0-1.3-0.2-1.8-0.5C65.9,12.7,65.6,12.2,65.7,11.5z M66.5,7.8  c0,0.8,0.2,1.4,0.5,1.8c0.3,0.4,0.7,0.6,1.2,0.6c0.5,0,0.9-0.2,1.2-0.6c0.3-0.4,0.5-1,0.5-1.8c0-0.8-0.2-1.3-0.5-1.7  c-0.3-0.4-0.7-0.6-1.2-0.6c-0.5,0-0.9,0.2-1.2,0.6C66.7,6.5,66.5,7,66.5,7.8z M72.6,11V2.4h1.1V11H72.6z M79.7,9l1.1,0.1  c-0.2,0.6-0.5,1.1-1,1.5c-0.5,0.4-1.1,0.5-1.8,0.5c-0.9,0-1.6-0.3-2.2-0.8c-0.5-0.6-0.8-1.3-0.8-2.4c0-1,0.3-1.9,0.8-2.4  c0.5-0.6,1.2-0.9,2.1-0.9c0.8,0,1.5,0.3,2,0.8c0.5,0.6,0.8,1.4,0.8,2.4c0,0.1,0,0.2,0,0.3h-4.6c0,0.7,0.2,1.2,0.6,1.6  c0.3,0.4,0.8,0.5,1.3,0.5c0.4,0,0.7-0.1,1-0.3C79.3,9.8,79.5,9.4,79.7,9z M76.2,7.3h3.5c0-0.5-0.2-0.9-0.4-1.2  C79,5.7,78.5,5.5,78,5.5c-0.5,0-0.9,0.2-1.2,0.5C76.5,6.3,76.3,6.7,76.2,7.3z M85.9,11V2.4h3.8c0.8,0,1.3,0.1,1.7,0.2  c0.4,0.2,0.7,0.4,1,0.8c0.2,0.4,0.4,0.8,0.4,1.3c0,0.6-0.2,1.1-0.6,1.5c-0.4,0.4-1,0.7-1.8,0.8c0.3,0.1,0.5,0.3,0.7,0.4  c0.3,0.3,0.6,0.7,0.9,1.1l1.5,2.3H92l-1.1-1.8C90.5,8.7,90.3,8.3,90,8c-0.2-0.3-0.4-0.5-0.6-0.6c-0.2-0.1-0.3-0.2-0.5-0.2  c-0.1,0-0.3,0-0.6,0H87V11H85.9z M87,6.2h2.4c0.5,0,0.9-0.1,1.2-0.2c0.3-0.1,0.5-0.3,0.7-0.5c0.2-0.2,0.2-0.5,0.2-0.8  c0-0.4-0.1-0.7-0.4-1c-0.3-0.3-0.8-0.4-1.4-0.4H87V6.2z M98.6,10.2c-0.4,0.3-0.8,0.6-1.1,0.7c-0.4,0.1-0.7,0.2-1.2,0.2  c-0.7,0-1.2-0.2-1.6-0.5c-0.4-0.3-0.6-0.8-0.6-1.3c0-0.3,0.1-0.6,0.2-0.8c0.1-0.3,0.3-0.5,0.5-0.6c0.2-0.2,0.5-0.3,0.8-0.3  c0.2-0.1,0.5-0.1,0.9-0.2c0.9-0.1,1.5-0.2,1.9-0.4c0-0.1,0-0.2,0-0.3c0-0.4-0.1-0.7-0.3-0.9c-0.3-0.2-0.7-0.4-1.2-0.4  c-0.5,0-0.9,0.1-1.1,0.3c-0.2,0.2-0.4,0.5-0.5,0.9l-1-0.1c0.1-0.4,0.2-0.8,0.5-1.1C95,5.2,95.3,5,95.7,4.9c0.4-0.1,0.9-0.2,1.4-0.2  c0.5,0,1,0.1,1.3,0.2s0.6,0.3,0.7,0.5c0.2,0.2,0.3,0.4,0.3,0.7c0,0.2,0.1,0.5,0.1,1v1.4c0,1,0,1.6,0.1,1.9c0,0.3,0.1,0.5,0.3,0.7  h-1.1C98.7,10.8,98.6,10.5,98.6,10.2z M98.5,7.9c-0.4,0.2-1,0.3-1.7,0.4c-0.4,0.1-0.7,0.1-0.9,0.2c-0.2,0.1-0.3,0.2-0.4,0.3  c-0.1,0.1-0.1,0.3-0.1,0.5c0,0.3,0.1,0.5,0.3,0.7c0.2,0.2,0.5,0.3,0.9,0.3c0.4,0,0.8-0.1,1.1-0.3c0.3-0.2,0.5-0.4,0.7-0.7  c0.1-0.2,0.2-0.6,0.2-1.1V7.9z M103.6,10.1l0.2,0.9c-0.3,0.1-0.6,0.1-0.8,0.1c-0.4,0-0.7-0.1-0.9-0.2c-0.2-0.1-0.4-0.3-0.4-0.5  c-0.1-0.2-0.1-0.6-0.1-1.2V5.6h-0.8V4.8h0.8V3.2l1-0.6v2.2h1.1v0.8h-1.1v3.6c0,0.3,0,0.5,0.1,0.6c0,0.1,0.1,0.2,0.2,0.2  c0.1,0.1,0.2,0.1,0.4,0.1C103.3,10.1,103.4,10.1,103.6,10.1z M104.8,3.6V2.4h1.1v1.2H104.8z M104.8,11V4.8h1.1V11H104.8z M107.5,11  V4.8h0.9v0.9c0.5-0.7,1.1-1,2-1c0.4,0,0.7,0.1,1,0.2c0.3,0.1,0.6,0.3,0.7,0.5c0.2,0.2,0.3,0.5,0.3,0.8c0,0.2,0.1,0.5,0.1,1V11h-1.1  V7.2c0-0.4,0-0.8-0.1-1c-0.1-0.2-0.2-0.4-0.4-0.5c-0.2-0.1-0.5-0.2-0.7-0.2c-0.4,0-0.8,0.1-1.2,0.4c-0.3,0.3-0.5,0.8-0.5,1.6V11  H107.5z M114.2,11.5l1,0.2c0,0.3,0.2,0.5,0.4,0.7c0.3,0.2,0.6,0.3,1.1,0.3c0.5,0,0.9-0.1,1.1-0.3c0.3-0.2,0.4-0.5,0.5-0.8  c0.1-0.2,0.1-0.7,0.1-1.4c-0.5,0.5-1,0.8-1.7,0.8c-0.9,0-1.5-0.3-2-0.9c-0.5-0.6-0.7-1.4-0.7-2.2c0-0.6,0.1-1.1,0.3-1.6  c0.2-0.5,0.5-0.9,0.9-1.2c0.4-0.3,0.9-0.4,1.4-0.4c0.7,0,1.3,0.3,1.8,0.9V4.8h1v5.4c0,1-0.1,1.7-0.3,2.1c-0.2,0.4-0.5,0.7-0.9,1  c-0.4,0.2-1,0.4-1.6,0.4c-0.7,0-1.3-0.2-1.8-0.5C114.4,12.7,114.1,12.2,114.2,11.5z M115,7.8c0,0.8,0.2,1.4,0.5,1.8  c0.3,0.4,0.7,0.6,1.2,0.6c0.5,0,0.9-0.2,1.2-0.6c0.3-0.4,0.5-1,0.5-1.8c0-0.8-0.2-1.3-0.5-1.7c-0.3-0.4-0.7-0.6-1.2-0.6  c-0.5,0-0.9,0.2-1.2,0.6C115.2,6.5,115,7,115,7.8z"></path>	<path class="st6" d="M47.7,32v-3h-5.5v-1.4l5.8-8.2h1.3v8.2H51V29h-1.7v3H47.7z M47.7,27.6v-5.7l-4,5.7H47.7z M53.6,32v-1.8h1.8V32  H53.6z M60.2,25.1c-0.6-0.2-1.1-0.6-1.4-1c-0.3-0.4-0.5-1-0.5-1.6c0-0.9,0.3-1.7,1-2.3c0.7-0.6,1.5-0.9,2.6-0.9c1.1,0,2,0.3,2.7,1  c0.7,0.6,1,1.4,1,2.3c0,0.6-0.2,1.1-0.5,1.5c-0.3,0.4-0.8,0.8-1.4,1c0.8,0.3,1.4,0.7,1.8,1.2c0.4,0.6,0.6,1.2,0.6,2  c0,1.1-0.4,2-1.1,2.7c-0.8,0.7-1.8,1.1-3,1.1c-1.2,0-2.3-0.4-3-1.1c-0.8-0.7-1.1-1.7-1.1-2.8c0-0.8,0.2-1.5,0.6-2.1  C58.8,25.7,59.4,25.4,60.2,25.1z M59.9,22.5c0,0.6,0.2,1.1,0.6,1.5c0.4,0.4,0.9,0.6,1.5,0.6c0.6,0,1.1-0.2,1.5-0.6  c0.4-0.4,0.6-0.8,0.6-1.4c0-0.6-0.2-1-0.6-1.4c-0.4-0.4-0.9-0.6-1.5-0.6c-0.6,0-1.1,0.2-1.5,0.6C60.1,21.5,59.9,22,59.9,22.5z   M59.4,28.4c0,0.4,0.1,0.9,0.3,1.3c0.2,0.4,0.5,0.7,0.9,1c0.4,0.2,0.9,0.3,1.3,0.3c0.7,0,1.4-0.2,1.8-0.7c0.5-0.5,0.7-1.1,0.7-1.8  c0-0.7-0.2-1.4-0.7-1.9c-0.5-0.5-1.1-0.7-1.9-0.7c-0.7,0-1.3,0.2-1.8,0.7C59.6,27,59.4,27.6,59.4,28.4z"></path>	<path class="st6" d="M76.2,24.3c0.1-0.1,0.2-0.1,0.3-0.1l3.6-0.3l1.4-3.5c0-0.1,0.1-0.2,0.2-0.2C81.8,20,81.9,20,82,20  c0.1,0,0.2,0,0.3,0.1c0.1,0.1,0.1,0.1,0.2,0.2l1.4,3.5l3.6,0.3c0.1,0,0.2,0,0.3,0.1c0.1,0.1,0.1,0.2,0.2,0.3c0,0.1,0,0.2,0,0.3  c0,0.1-0.1,0.2-0.2,0.3l-2.7,2.5l0.8,3.7c0,0.1,0,0.2,0,0.3c0,0.1-0.1,0.2-0.2,0.2C85.6,32,85.5,32,85.4,32c-0.1,0-0.2,0-0.3-0.1  l-3.2-2l-3.1,2C78.8,32,78.7,32,78.6,32c-0.1,0-0.2,0-0.3-0.1c-0.1-0.1-0.1-0.1-0.2-0.2c0-0.1,0-0.2,0-0.3l0.8-3.7l-2.8-2.5  C76.1,25,76,24.9,76,24.8s0-0.2,0-0.3C76.1,24.4,76.1,24.4,76.2,24.3z"></path>	<path class="st6" d="M94.2,24.3c0.1-0.1,0.2-0.1,0.3-0.1l3.6-0.3l1.4-3.5c0-0.1,0.1-0.2,0.2-0.2C99.8,20,99.9,20,100,20  c0.1,0,0.2,0,0.3,0.1c0.1,0.1,0.1,0.1,0.2,0.2l1.4,3.5l3.6,0.3c0.1,0,0.2,0,0.3,0.1c0.1,0.1,0.1,0.2,0.2,0.3c0,0.1,0,0.2,0,0.3  c0,0.1-0.1,0.2-0.2,0.3l-2.7,2.5l0.8,3.7c0,0.1,0,0.2,0,0.3c0,0.1-0.1,0.2-0.2,0.2c-0.1,0.1-0.2,0.1-0.3,0.1c-0.1,0-0.2,0-0.3-0.1  l-3.2-2l-3.1,2C96.8,32,96.7,32,96.6,32c-0.1,0-0.2,0-0.3-0.1c-0.1-0.1-0.1-0.1-0.2-0.2c0-0.1,0-0.2,0-0.3l0.8-3.7l-2.8-2.5  C94.1,25,94,24.9,94,24.8s0-0.2,0-0.3C94.1,24.4,94.1,24.4,94.2,24.3z"></path>	<path class="st6" d="M112.2,24.3c0.1-0.1,0.2-0.1,0.3-0.1l3.6-0.3l1.4-3.5c0-0.1,0.1-0.2,0.2-0.2c0.1-0.1,0.2-0.1,0.3-0.1  c0.1,0,0.2,0,0.3,0.1c0.1,0.1,0.1,0.1,0.2,0.2l1.4,3.5l3.6,0.3c0.1,0,0.2,0,0.3,0.1c0.1,0.1,0.1,0.2,0.2,0.3c0,0.1,0,0.2,0,0.3  c0,0.1-0.1,0.2-0.2,0.3l-2.7,2.5l0.8,3.7c0,0.1,0,0.2,0,0.3c0,0.1-0.1,0.2-0.2,0.2c-0.1,0.1-0.2,0.1-0.3,0.1c-0.1,0-0.2,0-0.3-0.1  l-3.2-2l-3.1,2c-0.1,0.1-0.2,0.1-0.3,0.1c-0.1,0-0.2,0-0.3-0.1c-0.1-0.1-0.1-0.1-0.2-0.2c0-0.1,0-0.2,0-0.3l0.8-3.7l-2.8-2.5  c-0.1-0.1-0.1-0.2-0.2-0.3s0-0.2,0-0.3C112.1,24.4,112.1,24.4,112.2,24.3z"></path>	<path class="st6" d="M130.2,24.3c0.1-0.1,0.2-0.1,0.3-0.1l3.6-0.3l1.4-3.5c0-0.1,0.1-0.2,0.2-0.2c0.1-0.1,0.2-0.1,0.3-0.1  c0.1,0,0.2,0,0.3,0.1c0.1,0.1,0.1,0.1,0.2,0.2l1.4,3.5l3.6,0.3c0.1,0,0.2,0,0.3,0.1c0.1,0.1,0.1,0.2,0.2,0.3c0,0.1,0,0.2,0,0.3  c0,0.1-0.1,0.2-0.2,0.3l-2.7,2.5l0.8,3.7c0,0.1,0,0.2,0,0.3c0,0.1-0.1,0.2-0.2,0.2c-0.1,0.1-0.2,0.1-0.3,0.1c-0.1,0-0.2,0-0.3-0.1  l-3.2-2l-3.1,2c-0.1,0.1-0.2,0.1-0.3,0.1c-0.1,0-0.2,0-0.3-0.1c-0.1-0.1-0.1-0.1-0.2-0.2c0-0.1,0-0.2,0-0.3l0.8-3.7l-2.8-2.5  c-0.1-0.1-0.1-0.2-0.2-0.3c0-0.1,0-0.2,0-0.3C130.1,24.4,130.1,24.4,130.2,24.3z"></path>	<path class="st6" d="M148.2,24.3c0.1-0.1,0.2-0.1,0.3-0.1l3.6-0.3l1.4-3.5c0-0.1,0.1-0.2,0.2-0.2c0.1-0.1,0.2-0.1,0.3-0.1  c0.1,0,0.2,0,0.3,0.1c0.1,0.1,0.1,0.1,0.2,0.2l1.4,3.5l3.6,0.3c0.1,0,0.2,0,0.3,0.1c0.1,0.1,0.1,0.2,0.2,0.3c0,0.1,0,0.2,0,0.3  c0,0.1-0.1,0.2-0.2,0.3l-2.7,2.5l0.8,3.7c0,0.1,0,0.2,0,0.3c0,0.1-0.1,0.2-0.2,0.2c-0.1,0.1-0.2,0.1-0.3,0.1c-0.1,0-0.2,0-0.3-0.1  l-3.2-2l-3.1,2c-0.1,0.1-0.2,0.1-0.3,0.1c-0.1,0-0.2,0-0.3-0.1c-0.1-0.1-0.1-0.1-0.2-0.2c0-0.1,0-0.2,0-0.3l0.8-3.7l-2.8-2.5  c-0.1-0.1-0.1-0.2-0.2-0.3c0-0.1,0-0.2,0-0.3C148.1,24.4,148.1,24.4,148.2,24.3z"></path></g></svg>