<svg width="191" height="32" viewBox="0 0 191 32" fill="none" xmlns="http://www.w3.org/2000/svg">
<path d="M9.24818 32H0V19.0299H2.24522V29.6611H7.00296V17.3821H0V0H14.2732C20.7416 0 26.0339 5.58139 26.0339 12.3854C26.0339 19.2425 20.7416 24.7708 14.2732 24.7708H10.4243V22.3256H14.2732C19.4586 22.3256 23.7352 17.8073 23.7352 12.3322C23.7352 6.85714 19.4586 2.33887 14.2732 2.33887H2.29868V15.0432H7.00296V6.43189H13.899C16.7857 6.43189 19.0844 8.87708 19.0844 11.907C19.0844 14.9369 16.7323 17.3821 13.899 17.3821H9.24818V32ZM9.24818 14.99H13.899C15.5027 14.99 16.8392 13.5548 16.8392 11.907C16.8392 10.206 15.5027 8.82392 13.899 8.82392H9.24818V14.99Z" fill="#00A571"/>
<path d="M44.5415 13.3953C44.5415 15.7342 42.7342 17.5415 40.3421 17.5415H37.7375V21.9003H35.6644V9.24914H40.3421C42.7342 9.24914 44.5415 11.0564 44.5415 13.3953ZM42.4684 13.3953C42.4684 12.1196 41.5647 11.2159 40.3421 11.2159H37.7375V15.6279H40.3421C41.5647 15.6279 42.4684 14.6711 42.4684 13.3953Z" fill="white"/>
<path d="M51.1323 12.7046V14.8308C49.8566 14.7245 48.3682 15.3624 48.3682 17.3823V21.9537H46.4014V12.9172H48.3682V14.4587C48.8998 13.1298 49.9629 12.7046 51.1323 12.7046Z" fill="white"/>
<path d="M61.6024 12.864V21.9006H59.6356V20.6248C58.9446 21.5816 57.8815 22.1664 56.4994 22.1664C54.0542 22.1664 51.9811 20.0933 51.9811 17.4355C51.9811 14.7245 54.0011 12.7046 56.4994 12.7046C57.9346 12.7046 58.9977 13.2893 59.6356 14.2461V12.9704H61.6024V12.864ZM59.6888 17.3823C59.6888 15.6813 58.4662 14.5119 56.8183 14.5119C55.1705 14.5119 53.9479 15.7345 53.9479 17.3823C53.9479 19.0833 55.1705 20.2527 56.8183 20.2527C58.4662 20.2527 59.6888 19.0301 59.6888 17.3823Z" fill="white"/>
<path d="M73.3508 12.8637V21.475C73.3508 24.3986 71.0651 25.7275 68.7262 25.7275C66.7594 25.7275 65.2179 24.9833 64.4206 23.5481L66.1215 22.5913C66.4936 23.3887 67.1847 23.9734 68.7794 23.9734C70.4804 23.9734 71.4903 23.0697 71.4903 21.475V20.3588C70.7993 21.3156 69.7362 21.9534 68.3541 21.9534C65.8026 21.9534 63.7827 19.8804 63.7827 17.2757C63.7827 14.6711 65.8026 12.598 68.3541 12.598C69.7362 12.598 70.7993 13.1827 71.4903 14.1927V12.8637H73.3508ZM71.4372 17.2757C71.4372 15.6279 70.2146 14.4584 68.5667 14.4584C66.9189 14.4584 65.6963 15.681 65.6963 17.2757C65.6963 18.9235 66.9189 20.093 68.5667 20.093C70.2146 20.093 71.4372 18.9235 71.4372 17.2757Z" fill="white"/>
<path d="M89.2994 16.266V21.8474H87.3326V16.3723C87.3326 15.0965 86.6416 14.4055 85.5785 14.4055C84.409 14.4055 83.6117 15.1497 83.6117 16.7975V21.8474H81.6449V16.3723C81.6449 15.0965 81.007 14.4055 79.9439 14.4055C78.8276 14.4055 77.924 15.1497 77.924 16.7975V21.8474H75.9572V12.8108H77.924V13.8739C78.5087 12.9703 79.4124 12.545 80.5286 12.545C81.6981 12.545 82.5486 13.0766 83.0801 13.9803C83.6648 13.0234 84.6217 12.545 85.8442 12.545C87.9173 12.5982 89.2994 14.0334 89.2994 16.266Z" fill="white"/>
<path d="M100.886 12.864V21.9006H98.9193V20.6248C98.2283 21.5816 97.1652 22.1664 95.7831 22.1664C93.3379 22.1664 91.2648 20.0933 91.2648 17.4355C91.2648 14.7245 93.2848 12.7046 95.7831 12.7046C97.2183 12.7046 98.2814 13.2893 98.9193 14.2461V12.9704H100.886V12.864ZM98.9193 17.3823C98.9193 15.6813 97.6967 14.5119 96.0489 14.5119C94.4011 14.5119 93.1785 15.7345 93.1785 17.3823C93.1785 19.0833 94.4011 20.2527 96.0489 20.2527C97.6967 20.2527 98.9193 19.0301 98.9193 17.3823Z" fill="white"/>
<path d="M106.309 14.7246V19.0834C106.309 20.2529 107.053 20.1997 108.541 20.1465V21.9007C105.564 22.2728 104.342 21.4223 104.342 19.0834V14.7246H102.694V12.8642H104.342V10.8974L106.309 10.3127V12.8642H108.541V14.7246H106.309Z" fill="white"/>
<path d="M110.401 10.2593C110.401 9.56824 110.985 9.03669 111.623 9.03669C112.261 9.03669 112.846 9.6214 112.846 10.2593C112.846 10.9503 112.261 11.4819 111.623 11.4819C110.985 11.4819 110.401 10.8971 110.401 10.2593ZM110.666 12.8639H112.633V21.9005H110.666V12.8639Z" fill="white"/>
<path d="M114.761 17.382C114.761 14.6711 116.781 12.6511 119.545 12.6511C121.299 12.6511 122.84 13.5548 123.584 14.99L121.883 15.9468C121.511 15.0963 120.608 14.5648 119.491 14.5648C117.897 14.5648 116.674 15.7874 116.674 17.382C116.674 19.0299 117.897 20.1993 119.491 20.1993C120.555 20.1993 121.458 19.6146 121.883 18.8173L123.584 19.7741C122.84 21.2093 121.299 22.1129 119.545 22.1129C116.781 22.1129 114.761 20.0398 114.761 17.382Z" fill="white"/>
<path d="M129.804 15.5749C129.804 11.9071 132.568 9.03669 136.395 9.03669C138.734 9.03669 140.754 10.2061 141.817 12.0666L140.01 13.1297C139.319 11.9071 137.99 11.1098 136.395 11.1098C133.684 11.1098 131.877 13.0234 131.877 15.628C131.877 18.2327 133.684 20.1463 136.395 20.1463C137.99 20.1463 139.372 19.349 140.01 18.1264L141.817 19.1364C140.754 20.9968 138.734 22.1663 136.395 22.1663C132.568 22.1131 129.804 19.2427 129.804 15.5749Z" fill="#00A571"/>
<path d="M143.251 17.382C143.251 14.6711 145.378 12.6511 148.035 12.6511C150.693 12.6511 152.819 14.7242 152.819 17.382C152.819 20.0398 150.693 22.1129 148.035 22.1129C145.378 22.1129 143.251 20.0398 143.251 17.382ZM150.853 17.382C150.853 15.7342 149.63 14.5116 148.035 14.5116C146.441 14.5116 145.218 15.7342 145.218 17.382C145.218 19.0299 146.441 20.2525 148.035 20.2525C149.63 20.2525 150.853 19.0299 150.853 17.382Z" fill="#00A571"/>
<path d="M164.037 9.24914V21.9003H162.07V20.6245C161.379 21.5814 160.316 22.1661 158.934 22.1661C156.488 22.1661 154.415 20.093 154.415 17.4352C154.415 14.7242 156.435 12.7043 158.934 12.7043C160.369 12.7043 161.432 13.289 162.07 14.2458V9.35545H164.037V9.24914ZM162.07 17.382C162.07 15.681 160.847 14.5116 159.199 14.5116C157.551 14.5116 156.329 15.7342 156.329 17.382C156.329 19.083 157.551 20.2525 159.199 20.2525C160.847 20.2525 162.07 19.0299 162.07 17.382Z" fill="#00A571"/>
<path d="M171.105 20.3591C172.168 20.3591 173.018 19.8806 173.444 19.2428L175.038 20.1996C174.188 21.4222 172.859 22.1664 171.105 22.1664C168.128 22.1664 166.214 20.1464 166.214 17.4355C166.214 14.7777 168.128 12.7046 170.998 12.7046C173.709 12.7046 175.517 14.884 175.517 17.4886C175.517 17.7544 175.463 18.0733 175.463 18.286H168.287C168.5 19.6149 169.669 20.3591 171.105 20.3591ZM173.497 16.6381C173.231 15.0966 172.061 14.4056 170.892 14.4056C169.404 14.4056 168.447 15.2561 168.181 16.6381H173.497Z" fill="#00A571"/>
<path d="M182.32 12.7046V14.8308C181.045 14.7245 179.556 15.3624 179.556 17.3823V21.9537H177.589V12.9172H179.556V14.4587C180.035 13.1298 181.151 12.7046 182.32 12.7046Z" fill="#00A571"/>
<path d="M190.403 19.3488C190.403 21.1561 188.808 22.1129 186.895 22.1129C185.088 22.1129 183.812 21.3156 183.227 19.9867L184.928 19.0299C185.194 19.8272 185.938 20.3056 186.948 20.3056C187.799 20.3056 188.49 20.0398 188.49 19.2956C188.49 17.701 183.652 18.6046 183.652 15.3621C183.652 13.6611 185.141 12.598 186.948 12.598C188.436 12.598 189.659 13.289 190.297 14.4584L188.649 15.3621C188.33 14.6711 187.692 14.3521 186.948 14.3521C186.257 14.3521 185.619 14.6711 185.619 15.3089C185.513 17.0099 190.403 16 190.403 19.3488Z" fill="#00A571"/>
</svg>
